<?xml version="1.0" encoding="utf-8"?>
<!-- Generator: Adobe Illustrator 19.1.0, SVG Export Plug-In . SVG Version: 6.00 Build 0)  -->
<svg version="1.1" id="Calque_1" xmlns="http://www.w3.org/2000/svg" xmlns:xlink="http://www.w3.org/1999/xlink" x="0px" y="0px"
	 viewBox="-214 212.1 100 109.9" style="enable-background:new -214 212.1 100 109.9;" xml:space="preserve">
<style type="text/css">
	.st0{fill:url(#SVGID_1_);}
	.st1{fill:#006280;}
	.st2{fill:#0AD2E1;}
	.st3{fill:#FFFFFF;}
</style>
<linearGradient id="SVGID_1_" gradientUnits="userSpaceOnUse" x1="-164.1427" y1="289.6464" x2="-164.1427" y2="197.635" gradientTransform="matrix(1 0 0 -1 0 502.2)">
	<stop  offset="0" style="stop-color:#0AD2E1"/>
	<stop  offset="1" style="stop-color:#0080A6"/>
</linearGradient>
<path class="st0" d="M-118.6,212.1h-91.2c-2.4,0-4.3,1.9-4.3,4.3v86.3c0,2.3,1.9,4.3,4.3,4.3h5.7l11,14.6c0.7,0.7,1.4,0.6,1.4-0.6
	v-14h73c2.3,0,4.3-1.9,4.3-4.3v-86.3C-114.3,214-116.1,212.1-118.6,212.1z"/>
<path class="st1" d="M-204,234.1h4v0.4h-4V234.1z M-200,243.6h10.8v0.4H-200V243.6z M-189.2,234.1h4v0.4h-4V234.1z"/>
<path class="st2" d="M-200,247.8h10.8v0.4H-200V247.8z M-204,257.3h4v0.4h-4V257.3z M-189.2,257.3h4v0.4h-4V257.3z"/>
<path class="st3" d="M-204,234.6h4v9.4h10.8v-9.4h4v22.8h-4v-9.7H-200v9.6h-4V234.6z"/>
<path class="st1" d="M-174.5,239.8c5.4,0,8.1,4.1,8.3,9v-0.3c0-5-2.7-9.3-8.3-9.3c-5,0-8.4,4-8.4,9v0.3
	C-182.8,243.8-179.3,239.8-174.5,239.8z"/>
<path class="st1" d="M-170.1,247.6v-0.4h-8.7c0,0.1,0,0.3-0.1,0.4H-170.1z M-173.9,254c-2.4,0-4.3-1.4-4.9-3.9h-0.1
	c0.4,2.9,2.4,4.4,5,4.4c1.9,0,3.3-0.7,4.7-2l2.3,2v-0.4l-2.4-2.1C-170.6,253.3-172.1,254-173.9,254z"/>
<path class="st2" d="M-174.5,243.1c-2.4,0-4.1,1.9-4.4,4.6h0.1c0.4-2.4,2.1-4,4.4-4c2.4,0,3.9,1.7,4.3,4
	C-170.3,245.1-171.9,243.1-174.5,243.1z M-174.1,257.7c-4.9,0-8.7-3.6-8.8-8.7v0.3c0,5.3,3.9,9,8.8,9c3.1,0,5.4-1.3,7-3.3v-0.4
	C-168.6,256.5-170.9,257.7-174.1,257.7z"/>
<path class="st2" d="M-166.2,250.2h-12.7c0,0.1,0,0.3,0.1,0.4h12.6v-1.1v-0.3V250.2z"/>
<path class="st3" d="M-182.9,248.9c0-5,3.4-9,8.4-9c5.4,0,8.3,4.3,8.3,9.3v1.1h-12.7c0.4,2.9,2.4,4.4,5,4.4c1.9,0,3.3-0.7,4.7-2
	l2.3,2c-1.7,1.7-4,3-7.1,3C-179,257.7-182.9,254.2-182.9,248.9z M-170.1,247.6c-0.3-2.6-1.7-4.6-4.4-4.6c-2.4,0-4.1,1.9-4.4,4.6
	H-170.1z"/>
<path class="st1" d="M-163.9,233.1h4v0.4h-4V233.1z"/>
<path class="st2" d="M-163.9,257.3h4v0.4h-4V257.3z"/>
<path class="st3" d="M-163.9,233.6h4v23.8h-4V233.6z"/>
<path class="st1" d="M-156.5,233.1h4v0.4h-4V233.1z"/>
<path class="st2" d="M-156.5,257.3h4v0.4h-4V257.3z"/>
<path class="st3" d="M-156.5,233.6h4v23.8h-4V233.6z"/>
<path class="st1" d="M-141.1,239.3c-5.3,0-9.1,4.1-9.1,9v0.3c0.1-4.9,4-8.8,9.1-8.8s9,3.9,9.1,8.7v-0.3
	C-132,243.3-135.8,239.3-141.1,239.3z M-146.4,248.8c0,3,2.1,5.6,5.3,5.6c3.1,0,5.3-2.6,5.3-5.4v-0.1c-0.1,2.9-2.1,5.3-5.3,5.3
	C-144.1,254-146.2,251.6-146.4,248.8C-146.4,248.6-146.4,248.6-146.4,248.8z"/>
<path class="st2" d="M-136,248.8c0-3-2.1-5.6-5.3-5.6c-3.1,0-5.1,2.4-5.1,5.4v0.1c0.1-2.9,2.1-5.3,5.1-5.3
	C-138.3,243.5-136.1,245.9-136,248.8C-136,249-136,248.9-136,248.8z"/>
<path class="st2" d="M-141.2,257.7c-5.1,0-9-3.9-9.1-8.7v0.3c0,4.9,3.9,8.8,9.1,8.8c5.3,0,9.3-4.1,9.3-9v-0.3
	C-132.1,253.8-136,257.7-141.2,257.7z"/>
<path class="st3" d="M-150.4,248.9c0-5,3.9-9.1,9.1-9.1c5.3,0,9.1,4,9.1,9c0,4.9-3.9,9-9.3,9C-146.4,257.7-150.4,253.8-150.4,248.9z
	 M-136,248.9c0-3.1-2.1-5.6-5.3-5.6c-3.1,0-5.1,2.4-5.1,5.4c0,3,2.1,5.6,5.3,5.6C-138,254.3-136,251.9-136,248.9z"/>
<path class="st1" d="M-128.3,261h4v0.4h-4V261z"/>
<path class="st2" d="M-128.3,279.1h4v0.4h-4V279.1z"/>
<path class="st3" d="M-128.3,261.5h4v17.7h-4V261.5z"/>
<path class="st1" d="M-128.3,280.9h4v0.4h-4V280.9z"/>
<path class="st2" d="M-128.3,284.9h4v0.4h-4V284.9z"/>
<path class="st3" d="M-128.3,281.4h4v3.4h-4V281.4z"/>
<path class="st1" d="M-166.6,267.2h4v0.4h-4V267.2z M-157.2,266.9c-2.7,0-4.3,1.4-5.4,3v0.4c1.1-1.6,2.7-3,5.4-3
	c3.9,0,6.1,2.6,6.1,6.6v-0.4C-151.1,269.4-153.4,266.9-157.2,266.9z"/>
<g>
	<path class="st2" d="M-155.1,275.2c0-2.7-1.3-4.1-3.7-4.1c-2.3,0-3.9,1.6-3.9,4.3v0.4c0-2.7,1.6-4.3,3.9-4.3s3.7,1.6,3.7,4.1V275.2
		z M-166.6,284.9h4v0.4h-4V284.9z M-155.1,284.9h4v0.4h-4V284.9z"/>
</g>
<path class="st3" d="M-166.6,267.7h4v2.7c1.1-1.6,2.7-3,5.4-3c3.9,0,6.1,2.6,6.1,6.6v10.8h-4V275c0-2.7-1.3-4.1-3.7-4.1
	c-2.3,0-3.9,1.6-3.9,4.3v9.7h-4V267.7z"/>
<g>
	<path class="st1" d="M-144.4,275.3l7.1-7.6h4.9v-0.6h-4.9l-7.1,7.7V275.3z M-139.1,274.4l-0.1,0.3l7,10.1v-0.4L-139.1,274.4z
		 M-148.4,261h4v0.4h-4V261z"/>
</g>
<g>
	<path class="st2" d="M-139.1,275l6.7-6.8v-0.4l-6.8,7L-139.1,275z M-136.8,284.9l-5.1-7.4l-2.4,2.6v0.4l2.4-2.4l5.1,7.4h4.6v-0.6
		H-136.8z M-148.4,284.9h4v0.4h-4V284.9z"/>
</g>
<path class="st3" d="M-148.4,261.5h4v13.8l7.1-7.6h4.9l-6.8,7l7.1,10.3h-4.6l-5.1-7.4l-2.4,2.6v4.7h-4.1V261.5z"/>
<g>
	<path class="st1" d="M-194.6,281.9c3,0,5.4-2.1,5.4-5.6v-0.1c-0.1,3.3-2.4,5.3-5.4,5.3c-1.3,0-3.4-0.1-5.4-2v0.4
		C-198,281.7-195.9,281.9-194.6,281.9z M-204,260.9h4v0.4h-4V260.9z M-194.3,266.9c-2.4,0-4.9,1.1-5.8,1.6v0.4
		c1-0.4,3.3-1.6,5.8-1.6c4.7,0,8.4,3.1,8.6,8.7v-0.3C-185.8,270.2-189.6,266.9-194.3,266.9z"/>
</g>
<g>
	<path class="st2" d="M-200.2,280l0.1-0.9v-0.4C-200,278.7-200.2,280-200.2,280z"/>
	<path class="st2" d="M-194.3,285.3c-2.9,0-7-0.7-9.8-4.6v0.4c2.7,3.9,7,4.6,9.8,4.6c4.7,0,8.6-3.3,8.6-9v-0.3
		C-185.8,282.1-189.6,285.3-194.3,285.3z M-189.2,276.3c0-3.3-2.4-5.6-5.4-5.6c-2.6,0-4.6,1.1-5.4,1.7v0.4c0.9-0.6,2.9-1.7,5.4-1.7
		c3,0,5.4,2.1,5.4,5.3V276.3z"/>
</g>
<path class="st3" d="M-194.3,267.4c-2.4,0-4.9,1.1-5.8,1.6v-7.6h-3.9v19.3c2.7,3.9,7,4.6,9.8,4.6c4.7,0,8.6-3.3,8.6-9
	C-185.8,270.6-189.6,267.4-194.3,267.4z M-189.2,276.4c0,3.4-2.4,5.6-5.4,5.6c-1.3,0-3.4-0.1-5.4-2v-7.4c0.9-0.6,2.9-1.7,5.4-1.7
	C-191.6,270.9-189.2,273-189.2,276.4z"/>
<g>
	<path class="st1" d="M-177.5,273.9c2.1,0,3.4,0.3,4.7,0.7v-0.3v-0.1c-1.4-0.4-2.7-0.7-4.7-0.7c-4,0-6.8,2.1-6.8,6v0.1
		C-184.3,276-181.5,273.9-177.5,273.9z M-181,279.7c0,1.6,1.7,2.6,3.6,2.6c2,0,4.7-0.7,4.7-3.7v-0.4c0,3-2.7,3.7-4.7,3.7
		c-1.7,0-3.4-0.9-3.6-2.3V279.7z M-176.5,266.9c-2.9,0-4.7,0.6-6.6,1.4v0.4c1.9-0.9,3.7-1.4,6.6-1.4c5.1,0,7.4,3.1,7.4,7.3v-0.4
		C-169.1,270-171.3,266.9-176.5,266.9z"/>
</g>
<g>
	<path class="st2" d="M-181.9,272.3c1.6-0.7,3-1.1,5-1.1c2.7,0,4.1,1.1,4.3,3.4v-0.3c0-2.4-1.6-3.6-4.3-3.6c-1.9,0-3.4,0.4-5,1.1
		l-1.1-3v0.4L-181.9,272.3z M-176.6,276.7c-2.4,0-4.3,1.3-4.3,3v0.1c0.1-1.6,2-2.7,4.3-2.7c1.6,0,3,0.3,4,0.7v-0.4
		C-173.8,277-175.2,276.7-176.6,276.7z"/>
	<path class="st2" d="M-171.9,284c-1.7,1.1-4.6,1.3-6.4,1.3c-2.9,0-5.8-1.9-6-5.1v0.3c0,3.4,3.1,5.3,6,5.3c1.9,0,4.7-0.1,6.4-1.3
		c2.6-1.7,3-3.9,3-5.1v-0.4C-169.1,280.3-169.5,282.4-171.9,284z"/>
</g>
<path class="st3" d="M-171.9,284c-1.7,1.1-4.6,1.3-6.4,1.3c-3,0-6-1.9-6-5.3c0-3.9,2.9-6,6.8-6c2.1,0,3.4,0.3,4.7,0.7v-0.3
	c0-2.4-1.6-3.6-4.3-3.6c-1.9,0-3.4,0.4-5,1.1l-1.1-3c1.9-0.9,3.7-1.4,6.6-1.4c5.1,0,7.4,3.1,7.4,7.3v4.1
	C-169.1,280.3-169.5,282.4-171.9,284z M-172.8,277.4c-1-0.4-2.4-0.7-4-0.7c-2.4,0-4.3,1.3-4.3,3c0,1.6,1.7,2.6,3.6,2.6
	c2,0,4.7-0.7,4.7-3.7V277.4z"/>
<g>
	<path class="st3" d="M-185.6,315.2c0-0.1,0.1-0.3,0.3-0.3s0.3,0.1,0.3,0.3v1.6c0.3-0.3,0.6-0.7,1.1-0.7c0.7,0,1.4,0.6,1.4,1.6
		c0,1-0.7,1.6-1.4,1.6c-0.6,0-0.9-0.3-1.1-0.6v0.4c0,0.1-0.1,0.3-0.3,0.3s-0.3-0.1-0.3-0.3V315.2z M-183,317.8c0-0.7-0.4-1.1-1-1.1
		s-1.1,0.4-1.1,1.1c0,0.7,0.6,1.1,1.1,1.1C-183.6,318.9-183,318.5-183,317.8z M-182,320.1l-0.1-0.1c0-0.1,0.1-0.1,0.1-0.1h0.4
		c0.3,0,0.4-0.1,0.6-0.6l-1.3-2.6v-0.1c0-0.1,0.1-0.3,0.3-0.3s0.1,0.1,0.3,0.1l1,2.3l0.9-2.3c0-0.1,0.1-0.1,0.1-0.1
		c0.1,0,0.3,0.1,0.3,0.3v0.1l-1.1,2.7c-0.3,0.6-0.6,0.9-1,0.9C-181.8,320.2-181.9,320.2-182,320.1z M-176.8,315.5
		c0-0.1,0.1-0.3,0.3-0.3h1.4c0.4,0,0.9,0.1,1,0.3c0.1,0.1,0.3,0.4,0.3,0.6c0,0.6-0.3,0.9-0.6,1c0.4,0.1,0.9,0.4,0.9,1
		c0,0.7-0.6,1.1-1.4,1.1h-1.6c-0.1,0-0.3-0.1-0.3-0.3C-176.8,318.9-176.8,315.5-176.8,315.5z M-175.2,317.1c0.6,0,0.9-0.3,0.9-0.7
		c0-0.4-0.3-0.7-0.9-0.7h-1.3v1.4H-175.2z M-175.1,318.8c0.6,0,1-0.3,1-0.7c0-0.4-0.4-0.7-1-0.7h-1.3v1.4H-175.1z M-172.6,315.5
		c0-0.1,0.1-0.3,0.3-0.3s0.1,0,0.3,0.1l2.4,3.1v-3c0-0.1,0.1-0.3,0.3-0.3s0.3,0.1,0.3,0.3v3.6c0,0.1-0.1,0.1-0.1,0.1
		c-0.1,0-0.1,0-0.3-0.1l-2.4-3.1v3.1c0,0.1-0.1,0.3-0.3,0.3s-0.3-0.1-0.3-0.3v-3.6H-172.6z M-168.1,315.5c0-0.1,0.1-0.3,0.3-0.3h1.3
		c0.9,0,1.6,0.4,1.6,1.3s-0.7,1.3-1.6,1.3h-1v1.3c0,0.1-0.1,0.3-0.3,0.3s-0.3-0.1-0.3-0.3C-168.1,319.1-168.1,315.5-168.1,315.5z
		 M-166.6,317.5c0.7,0,1.1-0.3,1.1-0.9s-0.4-0.9-1.1-0.9h-1v1.7H-166.6z M-162.6,315.5c0-0.1,0.1-0.3,0.3-0.3h1.3
		c0.9,0,1.6,0.4,1.6,1.3s-0.7,1.3-1.6,1.3h-1v1.3c0,0.1-0.1,0.3-0.3,0.3s-0.3-0.1-0.3-0.3C-162.6,319.1-162.6,315.5-162.6,315.5z
		 M-161.1,317.5c0.7,0,1.1-0.3,1.1-0.9s-0.4-0.9-1.1-0.9h-1v1.7H-161.1z M-159.4,318.9l1.6-3.6c0-0.1,0.1-0.1,0.3-0.1
		c0.1,0,0.3,0.1,0.3,0.1l1.6,3.6v0.1c0,0.1-0.1,0.3-0.3,0.3c-0.1,0-0.1-0.1-0.3-0.1l-0.4-0.9h-2.1l-0.1,0.7c0,0.1-0.1,0.1-0.3,0.1
		C-159.4,319.4-159.4,319.2-159.4,318.9C-159.4,319.1-159.4,319.1-159.4,318.9z M-156.5,317.8l-0.9-2l-1,2H-156.5z M-154.7,315.5
		c0-0.1,0.1-0.3,0.3-0.3h1.6c0.4,0,0.9,0.1,1.1,0.4c0.1,0.1,0.3,0.4,0.3,0.9c0,0.7-0.4,1-1.1,1.1l1,1.3l0.1,0.1
		c0,0.1-0.1,0.3-0.3,0.3c-0.1,0-0.1,0-0.1-0.1l-1.1-1.4h-1.1v1.4c0,0.1-0.1,0.3-0.3,0.3s-0.3-0.1-0.3-0.3
		C-154.7,319.2-154.7,315.5-154.7,315.5z M-152.9,317.4c0.6,0,1-0.3,1-0.9c0-0.4-0.4-0.9-1-0.9h-1.3v1.6h1.3V317.4z M-150.5,315.5
		c0-0.1,0.1-0.3,0.3-0.3s0.3,0.1,0.3,0.3v3.6c0,0.1-0.1,0.3-0.3,0.3s-0.3-0.1-0.3-0.3V315.5z M-148.8,315.5c0-0.1,0.1-0.3,0.3-0.3
		h1.4c0.4,0,0.9,0.1,1,0.3c0.1,0.1,0.3,0.4,0.3,0.6c0,0.6-0.3,0.9-0.6,1c0.4,0.1,0.9,0.4,0.9,1c0,0.7-0.6,1.1-1.4,1.1h-1.6
		c-0.1,0-0.3-0.1-0.3-0.3V315.5z M-147.2,317.1c0.6,0,0.9-0.3,0.9-0.7c0-0.4-0.3-0.7-0.9-0.7h-1.1v1.4H-147.2z M-147.1,318.8
		c0.6,0,1-0.3,1-0.7c0-0.4-0.4-0.7-1-0.7h-1.3v1.4C-148.4,318.8-147.1,318.8-147.1,318.8z M-145,318.9l1.6-3.6
		c0-0.1,0.1-0.1,0.3-0.1c0.1,0,0.3,0.1,0.3,0.1l1.6,3.6v0.1c0,0.1-0.1,0.3-0.3,0.3c-0.1,0-0.1-0.1-0.3-0.1l-0.4-0.9h-1.9l-0.4,0.7
		c0,0.1-0.1,0.1-0.3,0.1C-144.8,319.4-145,319.2-145,318.9C-145,319.1-145,319.1-145,318.9z M-142.1,317.8l-0.9-2l-0.9,2
		C-143.8,317.8-142.1,317.8-142.1,317.8z M-140.4,318.8l-0.1-0.1c0-0.1,0.1-0.3,0.3-0.3h0.1c0.4,0.3,0.7,0.4,1.3,0.4
		s0.9-0.3,0.9-0.7c0-0.4-0.1-0.6-1-0.7c-0.9-0.1-1.3-0.4-1.3-1.1c0-0.6,0.6-1.1,1.3-1.1c0.6,0,0.9,0.1,1.3,0.4l0.1,0.1
		c0,0.1-0.1,0.3-0.3,0.3h-0.1c-0.3-0.3-0.7-0.3-1-0.3c-0.6,0-0.9,0.3-0.9,0.7c0,0.4,0.1,0.6,1.1,0.7c0.9,0.1,1.3,0.6,1.3,1.1
		c0,0.7-0.6,1.1-1.4,1.1C-139.5,319.4-140,319.1-140.4,318.8z M-134.8,315.5c0-0.1,0.1-0.3,0.3-0.3h2.4c0.1,0,0.1,0.1,0.1,0.1
		c0,0.1-0.1,0.1-0.1,0.1h-2.3v1.4h2c0.1,0,0.1,0.1,0.1,0.1c0,0.1-0.1,0.1-0.1,0.1h-2v1.9c0,0.1-0.1,0.3-0.3,0.3s-0.3-0.1-0.3-0.3
		v-3.6H-134.8z M-131.4,317.2c0-1.1,0.9-2.1,2-2.1c1.3,0,2,1,2,2c0,1.1-0.9,2.1-2,2.1C-130.5,319.4-131.4,318.4-131.4,317.2z
		 M-127.8,317.2c0-0.9-0.7-1.7-1.6-1.7c-0.9,0-1.6,0.7-1.6,1.7c0,0.9,0.7,1.7,1.6,1.7C-128.4,318.9-127.8,318.2-127.8,317.2z
		 M-126.4,315.5c0-0.1,0.1-0.3,0.3-0.3h1.6c0.4,0,0.9,0.1,1.1,0.4c0.1,0.1,0.3,0.4,0.3,0.9c0,0.7-0.4,1-1.1,1.1l1,1.3l0.1,0.1
		c0,0.1-0.1,0.3-0.3,0.3s-0.1,0-0.1-0.1l-1.1-1.4h-1.1v1.4c0,0.1-0.1,0.3-0.3,0.3s-0.3-0.1-0.3-0.3
		C-126.4,319.2-126.4,315.5-126.4,315.5z M-124.7,317.4c0.6,0,1-0.3,1-0.9c0-0.4-0.4-0.9-1-0.9h-1.3v1.6h1.3V317.4z M-121.1,315.7
		h-1.1c-0.1,0-0.1-0.1-0.1-0.1c0-0.1,0.1-0.1,0.1-0.1h2.9c0.1,0,0.1,0.1,0.1,0.1c0,0.1-0.1,0.1-0.1,0.1h-1.1v3.4
		c0,0.1-0.1,0.3-0.3,0.3c-0.1,0-0.3-0.1-0.3-0.3V315.7z M-118.6,315.5c0-0.1,0.1-0.3,0.3-0.3c0.1,0,0.3,0.1,0.3,0.3v3.6
		c0,0.1-0.1,0.3-0.3,0.3c-0.1,0-0.3-0.1-0.3-0.3V315.5z M-117,318.8l-0.1-0.1c0-0.1,0.1-0.3,0.3-0.3h0.1c0.4,0.3,0.7,0.4,1.3,0.4
		c0.6,0,0.9-0.3,0.9-0.7c0-0.4-0.1-0.6-1-0.7s-1.3-0.4-1.3-1.1c0-0.6,0.6-1.1,1.3-1.1c0.6,0,0.9,0.1,1.3,0.4l0.1,0.1
		c0,0.1-0.1,0.3-0.3,0.3h-0.1c-0.3-0.3-0.7-0.3-1-0.3c-0.6,0-0.9,0.3-0.9,0.7c0,0.4,0.1,0.6,1.1,0.7c0.9,0.1,1.3,0.6,1.3,1.1
		c0,0.7-0.6,1.1-1.4,1.1C-116.1,319.4-116.6,319.1-117,318.8L-117,318.8z"/>
</g>
</svg>
